<?xml version="1.0" standalone="no"?>
<!DOCTYPE svg PUBLIC "-//W3C//DTD SVG 20010904//EN"
 "http://www.w3.org/TR/2001/REC-SVG-20010904/DTD/svg10.dtd">
<svg version="1.0" xmlns="http://www.w3.org/2000/svg"
 width="512.000000pt" height="512.000000pt" viewBox="0 0 512.000000 512.000000"
 preserveAspectRatio="xMidYMid meet">
<metadata>
Created by potrace 1.11, written by Peter Selinger 2001-2013
</metadata>
<g transform="translate(0.000000,512.000000) scale(0.100000,-0.100000)"
fill="#000000" stroke="none">
<path d="M3018 4255 c-2 -2 -26 -5 -54 -9 -167 -20 -363 -118 -495 -248 -90
-89 -122 -133 -178 -245 -80 -161 -108 -320 -88 -509 25 -243 155 -466 362
-621 265 -200 633 -234 925 -88 102 51 113 58 160 95 188 147 314 360 346 583
10 65 10 218 1 276 -25 164 -107 338 -218 465 -43 49 -159 143 -224 182 -77
46 -201 91 -305 110 -34 6 -227 13 -232 9z m170 -203 c18 -9 45 -35 60 -56 38
-55 39 -145 2 -199 -27 -40 -79 -73 -125 -80 -71 -11 -162 43 -192 113 -15 37
-8 122 13 156 52 82 157 110 242 66z m484 -280 c35 -22 66 -65 71 -101 2 -11
6 -23 9 -26 12 -12 -13 -100 -38 -132 -73 -97 -223 -89 -289 15 -104 164 81
346 247 244z m-968 14 c76 -32 120 -128 97 -214 -42 -155 -261 -172 -332 -24
-41 83 -9 182 75 233 37 23 112 25 160 5z m453 -348 c12 -6 29 -26 38 -44 43
-91 -72 -187 -153 -127 -57 43 -54 129 6 169 34 23 67 24 109 2z m-452 -198
c86 -39 126 -140 90 -227 -20 -48 -41 -71 -87 -94 -67 -34 -143 -22 -197 30
-62 60 -77 124 -46 198 21 50 42 72 90 94 52 24 96 24 150 -1z m939 2 c55 -25
97 -79 103 -135 17 -150 -118 -249 -254 -188 -74 34 -116 125 -93 205 30 107
144 162 244 118z m-484 -267 c78 -25 128 -107 116 -191 -11 -81 -60 -134 -144
-152 -120 -27 -236 95 -204 215 29 106 129 161 232 128z"/>
<path d="M1230 3888 c-171 -35 -341 -146 -444 -292 -41 -58 -96 -165 -96 -187
0 -6 -4 -7 -10 -4 -5 3 -7 0 -4 -9 3 -8 1 -31 -5 -53 -25 -89 -24 -224 3 -358
17 -83 107 -239 184 -321 91 -94 250 -181 377 -205 69 -12 214 -16 268 -5 146
27 276 95 383 201 114 112 183 236 212 380 12 61 10 235 -4 295 -41 173 -139
325 -279 430 -169 126 -373 171 -585 128z m228 -154 c91 -53 84 -203 -12 -248
-86 -41 -174 -3 -200 85 -15 51 -14 71 10 115 36 67 132 90 202 48z m-394
-214 c134 -65 86 -270 -64 -270 -79 0 -143 66 -142 146 3 110 107 173 206 124z
m773 -6 c47 -35 66 -69 66 -117 0 -91 -72 -155 -160 -143 -56 7 -87 28 -108
73 -36 74 -18 144 46 185 49 32 115 32 156 2z m-422 -264 c34 -13 56 -64 43
-101 -23 -67 -114 -76 -149 -14 -14 25 -15 36 -6 65 11 32 45 59 74 60 6 0 23
-4 38 -10z m-331 -176 c14 -11 23 -25 21 -31 -2 -7 1 -12 7 -10 21 4 39 -71
28 -112 -16 -61 -80 -111 -142 -111 -32 0 -101 36 -117 62 -50 80 -12 194 71
220 37 11 104 2 132 -18z m738 9 c72 -29 104 -130 63 -200 -22 -37 -82 -73
-121 -73 -42 0 -107 36 -128 71 -24 41 -23 111 4 154 37 59 106 77 182 48z
m-354 -233 c27 -20 54 -69 57 -105 2 -25 -19 -82 -38 -104 -27 -29 -76 -51
-115 -51 -33 0 -105 48 -123 81 -31 59 0 157 62 191 45 25 114 20 157 -12z"/>
<path d="M2107 2688 c-101 -130 -270 -248 -429 -299 -121 -39 -188 -48 -323
-44 -91 2 -154 9 -208 24 -88 23 -233 88 -283 126 -18 14 -35 25 -38 25 -4 0
-6 -332 -6 -739 l0 -738 26 -50 c28 -57 82 -101 141 -113 21 -4 612 -7 1313
-6 1113 1 1278 3 1300 16 45 27 81 64 103 105 21 40 21 48 21 783 1 408 -2
742 -6 742 -4 0 -29 -13 -56 -29 -95 -56 -237 -111 -327 -127 -112 -19 -175
-25 -260 -23 -279 6 -553 122 -752 318 l-62 61 -64 0 c-61 0 -66 -2 -90 -32z
m720 -882 c1 -1 -63 -35 -142 -76 -79 -41 -166 -86 -192 -100 -26 -14 -115
-61 -198 -104 -82 -43 -170 -90 -194 -103 -24 -13 -46 -21 -50 -18 -3 4 -7 50
-8 103 -2 133 -5 675 -4 685 1 5 771 -373 788 -387z"/>
<path d="M4275 2445 c-99 -51 -240 -123 -312 -160 -87 -44 -133 -73 -134 -84
-2 -68 0 -813 3 -816 2 -1 59 -32 128 -67 252 -132 327 -171 408 -215 46 -25
85 -43 88 -41 4 5 6 1469 2 1473 -2 2 -84 -39 -183 -90z"/>
</g>
</svg>
